<svg xmlns="http://www.w3.org/2000/svg" viewBox="0 0 640 400" preserveAspectRatio="xMidYMid slice" role="img" aria-label="Illustration: camping near Santa Teresa"><title>Illustration: camping near Santa Teresa</title>
<defs>
  <linearGradient id="tcamping-sky" x1="0" y1="0" x2="0" y2="1">
    <stop offset="0" stop-color="#14052B"/>
    <stop offset=".32" stop-color="#4A1474"/>
    <stop offset=".58" stop-color="#C21E78"/>
    <stop offset=".78" stop-color="#FF5A3C"/>
    <stop offset="1" stop-color="#FFB43C"/>
  </linearGradient>
  <radialGradient id="tcamping-sun" cx=".5" cy=".5" r=".5">
    <stop offset="0" stop-color="#FFF6C4"/>
    <stop offset=".55" stop-color="#FFD23F"/>
    <stop offset="1" stop-color="#FF8A2A"/>
  </radialGradient>
  <radialGradient id="tcamping-sunglow" cx=".5" cy=".5" r=".5">
    <stop offset="0" stop-color="#FFB347" stop-opacity=".75"/>
    <stop offset="1" stop-color="#FF3D7F" stop-opacity="0"/>
  </radialGradient>
  <linearGradient id="tcamping-sea" x1="0" y1="0" x2="0" y2="1">
    <stop offset="0" stop-color="#8A2B8F"/>
    <stop offset=".45" stop-color="#3B1466"/>
    <stop offset="1" stop-color="#1A0838"/>
  </linearGradient>
  <linearGradient id="tcamping-sand" x1="0" y1="0" x2="0" y2="1">
    <stop offset="0" stop-color="#E0794A"/>
    <stop offset=".5" stop-color="#9C3E52"/>
    <stop offset="1" stop-color="#3A1236"/>
  </linearGradient>
  <linearGradient id="tcamping-body" x1="0" y1="0" x2="1" y2="1">
    <stop offset="0" stop-color="#B14DFF"/>
    <stop offset=".55" stop-color="#7A1FD1"/>
    <stop offset="1" stop-color="#FF007F"/>
  </linearGradient>
  <linearGradient id="tcamping-red" x1="0" y1="0" x2="1" y2="1">
    <stop offset="0" stop-color="#FF4D6D"/>
    <stop offset="1" stop-color="#C2003F"/>
  </linearGradient>
  <linearGradient id="tcamping-teal" x1="0" y1="0" x2="1" y2="1">
    <stop offset="0" stop-color="#3FF2E0"/>
    <stop offset="1" stop-color="#0A7FA8"/>
  </linearGradient>
  <linearGradient id="tcamping-chrome" x1="0" y1="0" x2="0" y2="1">
    <stop offset="0" stop-color="#F4F7FF"/>
    <stop offset=".5" stop-color="#8E97B5"/>
    <stop offset="1" stop-color="#E6ECFF"/>
  </linearGradient>
  <filter id="tcamping-glow" x="-30%" y="-30%" width="160%" height="160%">
    <feGaussianBlur stdDeviation="3" result="b"/>
    <feMerge><feMergeNode in="b"/><feMergeNode in="SourceGraphic"/></feMerge>
  </filter>
  <filter id="tcamping-soft" x="-50%" y="-50%" width="200%" height="200%"><feGaussianBlur stdDeviation="14"/></filter>
  
</defs>
    <rect width="640" height="400" fill="#120530"/>
    <rect width="640" height="240" fill="url(#tcamping-sky)" opacity=".55"/>
    <circle cx="212" cy="43" r="1.7" fill="#fff" opacity="0.53"/><circle cx="421" cy="51" r="1.7" fill="#fff" opacity="0.56"/><circle cx="241" cy="97" r="1.7" fill="#fff" opacity="0.73"/><circle cx="232" cy="127" r="1.4" fill="#fff" opacity="0.31"/><circle cx="576" cy="146" r="1.6" fill="#fff" opacity="0.40"/><circle cx="150" cy="64" r="1.6" fill="#fff" opacity="0.67"/><circle cx="513" cy="70" r="0.8" fill="#fff" opacity="0.73"/><circle cx="66" cy="146" r="1.1" fill="#fff" opacity="0.61"/><circle cx="178" cy="113" r="0.4" fill="#fff" opacity="0.53"/><circle cx="201" cy="5" r="1.0" fill="#fff" opacity="0.40"/><circle cx="600" cy="182" r="1.2" fill="#fff" opacity="0.41"/><circle cx="111" cy="176" r="0.6" fill="#fff" opacity="0.69"/><circle cx="363" cy="66" r="1.5" fill="#fff" opacity="0.32"/><circle cx="43" cy="189" r="1.4" fill="#fff" opacity="0.78"/><circle cx="376" cy="188" r="1.7" fill="#fff" opacity="0.37"/><circle cx="146" cy="186" r="1.7" fill="#fff" opacity="0.87"/><circle cx="102" cy="100" r="1.2" fill="#fff" opacity="0.33"/><circle cx="120" cy="81" r="0.4" fill="#fff" opacity="0.56"/><circle cx="616" cy="99" r="1.3" fill="#fff" opacity="0.68"/><circle cx="565" cy="47" r="1.5" fill="#fff" opacity="0.66"/><circle cx="408" cy="190" r="0.5" fill="#fff" opacity="0.46"/><circle cx="281" cy="138" r="1.1" fill="#fff" opacity="0.72"/><circle cx="577" cy="165" r="0.6" fill="#fff" opacity="0.37"/><circle cx="389" cy="46" r="1.4" fill="#fff" opacity="0.46"/><circle cx="206" cy="37" r="0.7" fill="#fff" opacity="0.81"/><circle cx="565" cy="187" r="0.7" fill="#fff" opacity="0.45"/><circle cx="488" cy="184" r="1.4" fill="#fff" opacity="0.39"/><circle cx="178" cy="127" r="1.1" fill="#fff" opacity="0.75"/><circle cx="317" cy="46" r="1.4" fill="#fff" opacity="0.71"/><circle cx="492" cy="136" r="1.3" fill="#fff" opacity="0.62"/><circle cx="625" cy="144" r="1.7" fill="#fff" opacity="0.33"/><circle cx="258" cy="75" r="0.8" fill="#fff" opacity="0.35"/><circle cx="188" cy="37" r="0.6" fill="#fff" opacity="0.36"/><circle cx="52" cy="20" r="0.7" fill="#fff" opacity="0.55"/><circle cx="175" cy="8" r="1.3" fill="#fff" opacity="0.37"/><circle cx="2" cy="19" r="0.4" fill="#fff" opacity="0.61"/><circle cx="167" cy="89" r="0.4" fill="#fff" opacity="0.62"/><circle cx="495" cy="177" r="0.9" fill="#fff" opacity="0.56"/><circle cx="362" cy="16" r="1.6" fill="#fff" opacity="0.58"/><circle cx="116" cy="83" r="1.8" fill="#fff" opacity="0.33"/><circle cx="365" cy="118" r="0.6" fill="#fff" opacity="0.73"/><circle cx="414" cy="161" r="0.8" fill="#fff" opacity="0.65"/><circle cx="326" cy="137" r="1.6" fill="#fff" opacity="0.69"/><circle cx="211" cy="162" r="1.3" fill="#fff" opacity="0.68"/><circle cx="584" cy="188" r="0.4" fill="#fff" opacity="0.64"/><circle cx="583" cy="183" r="0.7" fill="#fff" opacity="0.89"/><circle cx="460" cy="42" r="1.2" fill="#fff" opacity="0.81"/><circle cx="19" cy="29" r="1.4" fill="#fff" opacity="0.34"/><circle cx="34" cy="156" r="1.4" fill="#fff" opacity="0.74"/><circle cx="259" cy="94" r="1.3" fill="#fff" opacity="0.32"/><circle cx="426" cy="19" r="0.5" fill="#fff" opacity="0.75"/><circle cx="386" cy="187" r="0.6" fill="#fff" opacity="0.63"/><circle cx="34" cy="49" r="0.9" fill="#fff" opacity="0.80"/><circle cx="312" cy="90" r="1.4" fill="#fff" opacity="0.47"/><circle cx="145" cy="11" r="0.5" fill="#fff" opacity="0.37"/><circle cx="212" cy="41" r="1.1" fill="#fff" opacity="0.86"/><circle cx="103" cy="176" r="0.8" fill="#fff" opacity="0.50"/><circle cx="378" cy="161" r="0.6" fill="#fff" opacity="0.35"/><circle cx="580" cy="3" r="1.5" fill="#fff" opacity="0.30"/><circle cx="226" cy="10" r="1.1" fill="#fff" opacity="0.65"/><circle cx="232" cy="171" r="0.5" fill="#fff" opacity="0.37"/><circle cx="284" cy="69" r="1.4" fill="#fff" opacity="0.72"/><circle cx="467" cy="125" r="0.4" fill="#fff" opacity="0.70"/><circle cx="134" cy="173" r="1.2" fill="#fff" opacity="0.84"/><circle cx="391" cy="173" r="0.6" fill="#fff" opacity="0.71"/><circle cx="613" cy="55" r="1.1" fill="#fff" opacity="0.46"/><circle cx="509" cy="101" r="0.7" fill="#fff" opacity="0.35"/><circle cx="47" cy="46" r="1.2" fill="#fff" opacity="0.69"/><circle cx="451" cy="134" r="1.3" fill="#fff" opacity="0.34"/><circle cx="505" cy="88" r="1.4" fill="#fff" opacity="0.51"/><circle cx="320" cy="23" r="1.5" fill="#fff" opacity="0.44"/><circle cx="408" cy="94" r="0.4" fill="#fff" opacity="0.73"/><circle cx="549" cy="67" r="1.5" fill="#fff" opacity="0.51"/><circle cx="356" cy="38" r="0.9" fill="#fff" opacity="0.36"/><circle cx="270" cy="69" r="1.0" fill="#fff" opacity="0.83"/><circle cx="427" cy="173" r="1.8" fill="#fff" opacity="0.76"/><circle cx="581" cy="22" r="0.5" fill="#fff" opacity="0.87"/><circle cx="464" cy="192" r="1.0" fill="#fff" opacity="0.44"/><circle cx="565" cy="138" r="0.4" fill="#fff" opacity="0.45"/><circle cx="143" cy="111" r="1.1" fill="#fff" opacity="0.55"/><circle cx="136" cy="196" r="1.4" fill="#fff" opacity="0.56"/><circle cx="111" cy="95" r="1.3" fill="#fff" opacity="0.59"/><circle cx="107" cy="36" r="0.8" fill="#fff" opacity="0.41"/><circle cx="354" cy="15" r="1.7" fill="#fff" opacity="0.39"/><circle cx="131" cy="179" r="0.9" fill="#fff" opacity="0.37"/><circle cx="262" cy="132" r="0.7" fill="#fff" opacity="0.85"/><circle cx="263" cy="183" r="1.6" fill="#fff" opacity="0.33"/><circle cx="412" cy="121" r="1.8" fill="#fff" opacity="0.79"/><circle cx="392" cy="131" r="1.6" fill="#fff" opacity="0.47"/><circle cx="291" cy="31" r="0.4" fill="#fff" opacity="0.78"/><circle cx="100" cy="57" r="0.6" fill="#fff" opacity="0.46"/><circle cx="286" cy="168" r="1.7" fill="#fff" opacity="0.86"/><circle cx="224" cy="95" r="0.7" fill="#fff" opacity="0.35"/><circle cx="262" cy="118" r="1.0" fill="#fff" opacity="0.37"/><circle cx="369" cy="174" r="0.4" fill="#fff" opacity="0.64"/><circle cx="489" cy="107" r="1.7" fill="#fff" opacity="0.63"/><circle cx="45" cy="38" r="1.3" fill="#fff" opacity="0.33"/><circle cx="429" cy="85" r="1.6" fill="#fff" opacity="0.79"/><circle cx="232" cy="0" r="0.4" fill="#fff" opacity="0.81"/><circle cx="516" cy="151" r="0.8" fill="#fff" opacity="0.73"/><circle cx="251" cy="33" r="0.6" fill="#fff" opacity="0.52"/><circle cx="521" cy="108" r="0.5" fill="#fff" opacity="0.71"/><circle cx="180" cy="190" r="0.7" fill="#fff" opacity="0.78"/><circle cx="263" cy="151" r="1.1" fill="#fff" opacity="0.82"/><circle cx="502" cy="164" r="1.4" fill="#fff" opacity="0.72"/><circle cx="105" cy="89" r="1.7" fill="#fff" opacity="0.87"/><circle cx="252" cy="172" r="1.2" fill="#fff" opacity="0.30"/><circle cx="601" cy="102" r="1.4" fill="#fff" opacity="0.64"/><circle cx="78" cy="179" r="0.6" fill="#fff" opacity="0.80"/><circle cx="3" cy="31" r="0.5" fill="#fff" opacity="0.57"/><circle cx="605" cy="55" r="1.3" fill="#fff" opacity="0.87"/><circle cx="525" cy="196" r="1.2" fill="#fff" opacity="0.38"/><circle cx="584" cy="60" r="1.3" fill="#fff" opacity="0.81"/><circle cx="301" cy="155" r="0.7" fill="#fff" opacity="0.62"/><circle cx="592" cy="72" r="1.6" fill="#fff" opacity="0.61"/><circle cx="501" cy="193" r="1.7" fill="#fff" opacity="0.82"/><circle cx="115" cy="138" r="0.5" fill="#fff" opacity="0.87"/><circle cx="67" cy="141" r="1.4" fill="#fff" opacity="0.68"/><circle cx="181" cy="163" r="1.4" fill="#fff" opacity="0.42"/><circle cx="475" cy="135" r="1.6" fill="#fff" opacity="0.83"/>
    <circle cx="520" cy="80" r="30" fill="#FFF3D6"/>
    <circle cx="532" cy="72" r="28" fill="#120530" opacity=".9"/>
    <rect y="230" width="640" height="70" fill="url(#tcamping-sea)"/>
    <path d="M0 400 L0 290 Q240 270 420 290 Q560 300 640 290 L640 400 Z" fill="#3A1A3A"/>
    <path d="M150 340 L230 230 L310 340 Z" fill="#FF8A2A"/>
    <path d="M230 230 L262 340 L198 340 Z" fill="#FFD23F" opacity=".85"/>
    <path d="M150 340 L230 230 L310 340" fill="none" stroke="#FF007F" stroke-width="3" filter="url(#tcamping-glow)"/>
    <circle cx="430" cy="330" r="60" fill="#FF8A2A" opacity=".35" filter="url(#tcamping-soft)"/>
    <path d="M410 345 L450 345 M415 352 L445 338" stroke="#5A2A1A" stroke-width="7" stroke-linecap="round"/>
    <path d="M418 340 Q414 312 430 296 Q428 318 440 326 Q446 310 444 300 Q458 322 444 340 Z" fill="#FFD23F"/>
    <path d="M424 340 Q424 324 432 316 Q434 330 438 340 Z" fill="#FFF6C4"/>
    <g transform="translate(40 400) scale(1 1)" fill="#0B0414">
    <path d="M-7 0 C-4 -90 18 -200 46 -290 L58 -286 C34 -200 12 -100 9 0 Z"/>
    <g transform="translate(52 -288)"><path d="M0 0 Q-46.1 -80.6 -112.8 -41.0 Q-48.4 -56.6 0 6 Z"/><path d="M0 0 Q-18.0 -83.1 -72.1 -72.1 Q-18.9 -59.1 0 6 Z"/><path d="M0 0 Q5.4 -72.7 -28.7 -78.9 Q5.6 -48.7 0 6 Z"/><path d="M0 0 Q48.7 -93.5 41.0 -112.8 Q51.1 -69.5 0 6 Z"/><path d="M0 0 Q55.5 -81.8 78.1 -65.6 Q58.2 -57.8 0 6 Z"/><path d="M0 0 Q46.0 -60.8 81.1 -21.7 Q48.3 -36.8 0 6 Z"/><path d="M0 0 Q50.2 -45.6 115.9 31.1 Q52.7 -21.6 0 6 Z"/><path d="M0 0 Q-56.6 -37.2 -95.8 34.9 Q-59.5 -13.2 0 6 Z"/><path d="M0 0 Q21.0 -66.0 -0.0 -84.0 Q22.0 -42.0 0 6 Z"/><circle cx="-6" cy="6" r="9"/><circle cx="8" cy="9" r="8"/></g>
  </g>
    <g transform="translate(610 400) scale(-0.8666666666666667 0.8666666666666667)" fill="#0B0414">
    <path d="M-7 0 C-4 -90 18 -200 46 -290 L58 -286 C34 -200 12 -100 9 0 Z"/>
    <g transform="translate(52 -288)"><path d="M0 0 Q-46.1 -80.6 -112.8 -41.0 Q-48.4 -56.6 0 6 Z"/><path d="M0 0 Q-18.0 -83.1 -72.1 -72.1 Q-18.9 -59.1 0 6 Z"/><path d="M0 0 Q5.4 -72.7 -28.7 -78.9 Q5.6 -48.7 0 6 Z"/><path d="M0 0 Q48.7 -93.5 41.0 -112.8 Q51.1 -69.5 0 6 Z"/><path d="M0 0 Q55.5 -81.8 78.1 -65.6 Q58.2 -57.8 0 6 Z"/><path d="M0 0 Q46.0 -60.8 81.1 -21.7 Q48.3 -36.8 0 6 Z"/><path d="M0 0 Q50.2 -45.6 115.9 31.1 Q52.7 -21.6 0 6 Z"/><path d="M0 0 Q-56.6 -37.2 -95.8 34.9 Q-59.5 -13.2 0 6 Z"/><path d="M0 0 Q21.0 -66.0 -0.0 -84.0 Q22.0 -42.0 0 6 Z"/><circle cx="-6" cy="6" r="9"/><circle cx="8" cy="9" r="8"/></g>
  </g></svg>
